PathFileType	4	(X/Y/Z)	C:/Users/beibeiliu/ov580/test_trc/capture2\sequence.27_training_dense_left.trc
DataRate	CameraRate	NumFrames	NumMarkers	Units	OrigDataRate	OrigDataStartFrame	OrigNumFrames
120	120	8	19	mm	120	174	347
Frame#	Time	ThumbCMC			ThumbMCP			ThumbIP			ThumbTip			IndexMCP			IndexPIP			IndexTip			MiddleMCP			MiddlePIP			MiddleTip			RingMCP			RingPIP			RingTip			PinkyMCP			PinkyPIP			PinkyTip			BackHand1			BackHand2			BackHand3	
		X0	Y0	Z0	X1	Y1	Z1	X2	Y2	Z2	X3	Y3	Z3	X4	Y4	Z4	X5	Y5	Z5	X6	Y6	Z6	X7	Y7	Z7	X8	Y8	Z8	X9	Y9	Z9	X10	Y10	Z10	X11	Y11	Z11	X12	Y12	Z12	X13	Y13	Z13	X14	Y14	Z14	X15	Y15	Z15	X16	Y16	Z16	X17	Y17	Z17	X18	Y18	Z18	
173	1.44167	-180.177	73.354	22.4136	-168.393	82.3492	-3.14022	-166.686	89.477	-31.6954	-165.829	78.8403	-52.1841	-189.164	64.527	-49.7001	-161.267	63.0753	-69.2214	-140.806	61.8859	-45.442	-180.854	45.6175	-55.9692	-147.997	48.5234	-59.0812	-148.209	53.4686	-21.7876	-175.638	30.0745	-51.6302	-144.316	29.5154	-50.4586	-148.437	41.9664	-17.504	-172.969	11.8736	-43.683	-144.128	20.5459	-40.8839	-141.642	30.7569	-9.78423	-208.091	26.9879	-3.66258	-207.633	24.0223	23.4371	-208.457	57.9946	10.911	
174	1.45	-177.851	73.5826	22.4525	-167.186	81.2849	-2.45024	-163.427	87.5458	-31.3268	-163.722	70.0629	-49.3146	-187.554	68.5709	-48.6834	-161.862	60.2259	-69.2238	-136.617	63.0306	-47.2482	-178.764	45.8897	-56.7329	-145.856	46.0298	-58.9417	-142.52	49.1977	-25.525	-172.116	26.4459	-53.7727	-142.908	34.2364	-49.2561	-146.192	39.3989	-17.2782	-170.916	10.8374	-43.4061	-143.367	20.1243	-42.6311	-139.734	30.2836	-11.8061	-206.792	23.6588	-7.07016	-208.745	22.8046	24.202	-206.515	57.0793	12.3126	
175	1.45833	-175.621	73.4857	26.8088	-163.028	85.0374	-1.80056	-160.163	82.8627	-28.4907	-158.198	69.1324	-50.9777	-184.62	64.8535	-48.71	-164.114	64.4669	-71.4316	-134.046	64.6113	-52.2778	-177.271	46.2711	-57.8776	-146.846	44.705	-63.8405	-140.578	50.7683	-24.6957	-170.945	29.4756	-52.9799	-141.141	34.899	-49.9592	-140.859	39.7346	-19.785	-169.174	11.0678	-44.4532	-141.568	18.3574	-42.3862	-135.663	30.8368	-12.5787	-203.798	26.598	-1.91873	-206.787	26.1545	24.2874	-204.414	57.6116	13.6512	
176	1.46667	-174.263	75.1909	23.021	-160.349	85.1077	-1.11507	-156.26	83.72	-27.4008	-155.482	66.1726	-47.9678	-183.871	65.5228	-47.7549	-160.154	60.5722	-69.6566	-134.244	62.3441	-54.6993	-176.32	47.1014	-57.6381	-147.074	47.9441	-65.2808	-135.631	53.1524	-27.0573	-170.062	28.9054	-52.6161	-139.562	30.1982	-52.514	-140.045	41.1652	-18.0939	-169.184	16.1489	-42.9281	-138	18.2682	-41.604	-132.772	29.3823	-13.4466	-202.689	25.3244	-3.46522	-206.248	24.6496	24.2331	-203.575	59.2125	10.4439	
177	1.475	-173.995	78.6325	25.722	-158.906	86.0038	-0.801143	-155.109	83.7474	-25.363	-155.039	60.7978	-46.0834	-184.296	68.5353	-50.9088	-163.111	62.1125	-71.6118	-132.243	64.839	-56.2511	-177.244	48.1968	-54.7493	-144.133	47.2594	-65.5845	-131.568	50.1564	-33.208	-170.197	33.2871	-53.9172	-140.58	31.2665	-55.8773	-135.402	40.874	-20.7816	-170.265	11.4806	-40.3712	-139.53	16.9577	-45.8719	-129.353	29.0784	-15.7477	-201.347	25.5867	-6.91455	-204.811	22.066	27.0725	-203.92	56.574	12.8462	
178	1.48333	-172.6	78.5969	26.3655	-159.553	81.6288	0.761394	-152.528	83.5963	-28.6748	-151.361	61.2483	-45.2711	-183.025	70.1334	-45.9861	-165.087	61.7086	-71.9602	-130.104	64.6229	-62.5475	-177.07	52.7056	-58.8324	-146.171	50.3397	-69.2723	-126.251	52.0648	-40.583	-172.532	33.8225	-52.5844	-139.746	30.1414	-58.6459	-128.846	41.2928	-28.7409	-169.386	13.0852	-43.7395	-143.664	19.0435	-50.4044	-126.108	31.0553	-25.0985	-199.593	24.5508	-5.2048	-205.587	27.1109	23.8224	-203.114	59.5984	13.2158	
179	1.49167	-171.866	78.051	28.8161	-156.638	85.6811	4.71703	-151.486	80.2057	-25.7274	-150.18	60.0844	-39.1736	-181.781	69.072	-49.8019	-167.236	67.7955	-72.7009	-134.041	59.6364	-70.4619	-178.843	52.8239	-55.3103	-153.197	49.8899	-74.398	-122.91	49.4489	-52.7305	-172.87	29.4442	-51.7909	-144.97	32.6963	-64.5343	-122.725	40.1795	-37.5112	-169.49	13.3758	-44.0529	-142.906	20.3974	-54.1549	-121.21	29.2528	-34.837	-198.829	25.6834	-2.37784	-203.355	27.6694	27.0551	-201.96	57.9388	14.8286	
180	1.5	-172.201	77.6426	26.63	-155.452	86.1475	3.84239	-149.606	79.9433	-29.9411	-150.193	51.9323	-38.9345	-181.092	66.8342	-44.8743	-163.572	63.3797	-73.0333	-132.936	63.106	-77.1142	-177.725	52.2619	-58.5991	-151.552	49.3047	-77.6191	-119.332	49.9737	-62.9273	-172.71	29.8134	-55.8817	-148.703	33.3023	-68.9623	-118.148	38.9686	-49.7734	-169.842	17.0447	-42.8632	-147.052	18.2592	-58.1783	-119.144	27.2983	-48.8272	-198.294	30.9637	-4.65037	-205.379	25.9601	21.7831	-199.702	55.9344	13.4003	
